<?xml version="1.0" encoding="utf-8"?>
<!-- Generator: Adobe Illustrator 26.0.1, SVG Export Plug-In . SVG Version: 6.00 Build 0)  -->
<svg version="1.1" id="Layer_1" xmlns="http://www.w3.org/2000/svg" xmlns:xlink="http://www.w3.org/1999/xlink" x="0px" y="0px"
	 viewBox="0 0 116 53" style="enable-background:new 0 0 116 53;" xml:space="preserve">
<style type="text/css">
	.st0{fill:#020203;stroke:#020203;stroke-miterlimit:10;}
	.st1{fill:#020203;}
	.st2{font-family:'Verdana';}
	.st3{font-size:10px;}
</style>
<path class="st0" d="M18.5,44.9c0,0.1,0,2.8,2.2,4c1.1,0.6,2.6,0.7,3.8,0.1c0.6-0.3,1.1-1,1.4-2.9c0.3-1.5,0.6-2,1.3-2.5
	c0.8-0.6,1.7-0.4,1.7-0.5c0-0.1-2.4-0.4-3.7,0.5c-0.8,0.6-0.9,0.8-1.3,2.1c-0.2,0.6-0.6,1.3-1.2,1.5C21.3,47.7,18.6,45,18.5,44.9"/>
<g>
	<path class="st1" d="M4.9,12.6C5.4,9.7,7.5,5.8,10,4c1.7-1.2,3.8-1.8,5.9-1.8c0.9,0,1.9,0.1,2.8,0.5c2.1,0.9,2.1,3.1,1.8,5.1
		c-0.2,1.1-0.4,2.2-0.8,3.2l-0.1,0c0.2-1.1,0.3-2.2,0.3-3.2c0.1-2.6-0.1-4.3-3.1-4.5c-3.3-0.2-6.5,1.1-8.5,3.7
		C7.6,7.9,7,8.8,6.4,9.7c-0.6,0.9-1,1.9-1.4,2.9L4.9,12.6L4.9,12.6z"/>
</g>
<g>
	<path class="st1" d="M19.6,12.1c0.1,5.2,0.2,10.9,0.2,16.1c0,1.3,0,2.7,0.1,4c0.1,2.7-0.2,5.4-0.7,8c-0.2,1.3-0.5,2.7-0.9,4l-0.2,0
		c-0.6-2.7-0.7-5.4-0.8-8.1c-0.1-2.7,0.4-5.4,0.6-8c0.1-2,0.5-6,0.7-8c0.3-2.7,0.5-5.3,0.8-8C19.4,12.1,19.6,12.1,19.6,12.1
		L19.6,12.1z"/>
</g>
<g>
	<path class="st1" d="M3.7,9.9C4,11,4.1,12.2,4.3,13.3c0,2.3,0,7.9,0,10.3c0,2.2,0,8.1,0,10.3C4,35,3.9,36.1,3.6,37.2
		c-0.2-1.1-0.4-2.3-0.5-3.4c0-2.2,0-8,0-10.3c0-2.4,0-7.9,0-10.3C3.3,12.2,3.5,11,3.7,9.9L3.7,9.9z"/>
</g>
<g>
	<path class="st1" d="M18.2,15.3c-7.1,0.3-9,10-6.4,15.3c1,1.9,2.7,3.5,4.9,3.8l0,0.3c-1.8-0.1-3.5-1-4.6-2.3
		C8.3,28.3,8.9,20,13.3,16.4c1.4-1.2,3.2-1.8,5-1.6C18.2,14.9,18.2,15.3,18.2,15.3L18.2,15.3z"/>
</g>
<g>
	<path class="st1" d="M20.6,15c1.9,0.1,3.8,1.3,4.7,3l-1.2-0.8c-1.2-0.7-2.3-1.3-3.6-1.8C20.5,15.4,20.6,15,20.6,15L20.6,15z"/>
</g>
<g>
	<path class="st1" d="M20.5,34.6c1.2-0.5,2.4-1.1,3.5-1.8c0.8-0.6,1-1.7,1.2-2.8c0.1-0.8,0.1-1.6,0.1-2.5c0.3,0.8,0.4,1.7,0.4,2.5
		c0,1.1-0.2,2.3-1,3.1c-0.5,0.5-1.2,0.7-1.7,1c-0.8,0.3-1.6,0.6-2.4,0.7C20.6,34.8,20.5,34.6,20.5,34.6L20.5,34.6z"/>
</g>
<g>
	<path class="st1" d="M22.8,27.1c0.5-1.1,1.9-1.3,2.9-1c0.5,0.1,1,0.4,1.4,0.6c0.4,0.2,0.9,0.3,1.4,0.5c-0.5,0.1-1.1,0.2-1.6,0.1
		c-0.4-0.1-0.7-0.3-1.1-0.4C24.8,26.6,23.8,26.4,22.8,27.1L22.8,27.1z"/>
</g>
<text transform="matrix(1 0 0 1 31.5215 42.9635)" class="st2 st3">Nici Le Gear Art</text>
</svg>
