<svg id="Layer_1" data-name="Layer 1" xmlns="http://www.w3.org/2000/svg" viewBox="0 0 189.55 103.94"><defs><style>.cls-1,.cls-2{fill:#010101;}.cls-1{stroke:#010101;stroke-miterlimit:10;}.cls-3{font-size:14.49px;fill:#1d1d1b;font-family:Verdana-Bold, Verdana;font-weight:700;}</style></defs><path class="cls-1" d="M37.08,97.24c0,.29,0,6.15,4.85,8.8a9.7,9.7,0,0,0,8.31.29c1.26-.61,2.44-2.24,3.13-6.32.62-3.34,1.43-4.48,2.86-5.5,1.75-1.26,3.75-.94,3.7-1.1,0-.32-5.29-.94-8,1.1-1.71,1.27-1.88,1.84-2.85,4.65-.45,1.3-1.27,2.89-2.57,3.3-3.22,1-9.25-5-9.41-5.22" transform="translate(-3.3 -3.68)"/><path class="cls-2" d="M7.17,26.47C8.39,20,13,11.39,18.54,7.56a21.34,21.34,0,0,1,13-3.87,14.36,14.36,0,0,1,6.07,1.06c4.64,2.08,4.52,6.85,3.91,11.16A40.69,40.69,0,0,1,39.72,23l-.24,0a58.46,58.46,0,0,0,.69-7.09c.17-5.66-.2-9.45-6.84-9.82a21.39,21.39,0,0,0-18.66,8.23,51.31,51.31,0,0,0-4.08,5.83,45.4,45.4,0,0,0-3.18,6.4l-.24,0Z" transform="translate(-3.3 -3.68)"/><path class="cls-2" d="M39.6,25.37c.33,11.41.45,23.91.41,35.36,0,2.94.08,5.91.16,8.85a98.08,98.08,0,0,1-1.46,17.6,72.7,72.7,0,0,1-2,8.76l-.53,0a96.18,96.18,0,0,1-1.67-17.77c-.12-5.91.77-11.77,1.26-17.64.33-4.4,1.1-13.24,1.51-17.6.57-5.87,1.1-11.74,1.79-17.6,0,.08.49.08.49.08Z" transform="translate(-3.3 -3.68)"/><path class="cls-2" d="M4.68,20.44c.49,2.44.86,5,1.23,7.49,0,5-.09,17.32-.09,22.54,0,4.93-.08,17.76-.08,22.53-.36,2.48-.73,5-1.26,7.5C4,78,3.67,75.48,3.3,73c0-4.73.08-17.64.08-22.53,0-5.26.08-17.44.08-22.54.33-2.48.74-5.05,1.22-7.49Z" transform="translate(-3.3 -3.68)"/><path class="cls-2" d="M36.47,32.42c-15.49.69-19.81,22-14,33.65a15.22,15.22,0,0,0,10.76,8.44l-.09.65a14.58,14.58,0,0,1-10.18-5c-8.19-9.21-6.89-27.47,2.65-35.37a14.8,14.8,0,0,1,10.92-3.46s0,1.1,0,1.1Z" transform="translate(-3.3 -3.68)"/><path class="cls-2" d="M41.76,31.64a12.47,12.47,0,0,1,10.31,6.48L49.5,36.45a47.38,47.38,0,0,0-7.9-4s.16-.86.16-.86Z" transform="translate(-3.3 -3.68)"/><path class="cls-2" d="M41.6,74.67a56.94,56.94,0,0,0,7.78-3.87C51.21,69.37,51.66,67,52,64.65a48.38,48.38,0,0,0,.33-5.46,19.31,19.31,0,0,1,.85,5.5c0,2.4-.45,5.09-2.28,6.88a13.11,13.11,0,0,1-3.83,2.12,21.14,21.14,0,0,1-5.38,1.51,3.25,3.25,0,0,0-.12-.53Z" transform="translate(-3.3 -3.68)"/><path class="cls-2" d="M46.53,58.21c1-2.45,4.11-2.94,6.4-2.12A14.29,14.29,0,0,1,56,57.47c1,.41,2,.74,3.14,1.1a7.25,7.25,0,0,1-3.5.13,21.3,21.3,0,0,1-2.41-.82c-2.36-.77-4.48-1.18-6.72.33Z" transform="translate(-3.3 -3.68)"/><text class="cls-3" transform="translate(61.82 83.28)">Nici Le Gear Art</text></svg>