<?xml version="1.0" encoding="utf-8"?>
<!-- Generator: Adobe Illustrator 26.0.1, SVG Export Plug-In . SVG Version: 6.00 Build 0)  -->
<svg version="1.1" id="Layer_1" xmlns="http://www.w3.org/2000/svg" xmlns:xlink="http://www.w3.org/1999/xlink" x="0px" y="0px"
	 viewBox="0 0 792 612" style="enable-background:new 0 0 792 612;" xml:space="preserve">
<style type="text/css">
	.st0{display:none;}
	.st1{display:inline;}
	.st2{stroke:#000000;stroke-miterlimit:10;}
	.st3{font-family:'MyriadPro-Regular';}
	.st4{font-size:12px;}
</style>
<g class="st0">
	<g class="st1">
		<path d="M71.2,74c-0.3,17.3-0.4,34.5-0.5,51.8s-0.1,34.6,0,51.8c0.1,9.8,0.1,19.6,0.2,29.4c0,3.2,5,3.2,5,0
			c-0.2-17.3-0.3-34.6-0.3-51.8c0-17.3,0.1-34.6,0.2-51.8c0.1-9.8,0.2-19.6,0.3-29.4C76.2,70.8,71.2,70.8,71.2,74L71.2,74z"/>
	</g>
</g>
<g>
	<path class="st2" d="M212.9,288.4c0,0.7,0.1,15.1,11.9,21.6c5.7,3.1,14.1,3.7,20.4,0.7c3.1-1.5,6-5.5,7.7-15.5
		c1.5-8.2,3.5-11,7-13.5c4.3-3.1,9.2-2.3,9.1-2.7c0-0.8-13-2.3-19.7,2.7c-4.2,3.1-4.6,4.5-7,11.4c-1.1,3.2-3.1,7.1-6.3,8.1
		C228.1,303.7,213.3,288.9,212.9,288.4"/>
	<g>
		<path d="M139.5,114.7c3-15.9,14.3-37,27.9-46.4c9.1-6.6,20.6-9.8,31.9-9.5c5,0,10,0.4,14.9,2.6c11.4,5.1,11.1,16.8,9.6,27.4
			c-1,6-2.4,11.8-4.4,17.4l-0.6-0.1c0.9-5.8,1.5-11.6,1.7-17.4c0.4-13.9-0.5-23.2-16.8-24.1c-17.6-1.2-35.1,5.9-45.8,20.2
			c-3.6,4.6-7.1,9.3-10,14.3c-3,5-5.6,10.2-7.8,15.7L139.5,114.7L139.5,114.7z"/>
	</g>
	<g>
		<path d="M219.1,112c0.8,28,1.1,58.7,1,86.8c0,7.2,0.2,14.5,0.4,21.7c0.3,14.5-1.3,28.9-3.6,43.2c-1.2,7.2-2.7,14.4-4.8,21.5
			l-1.3-0.1c-3-14.4-3.8-28.9-4.1-43.6c-0.3-14.5,1.9-28.9,3.1-43.3c0.8-10.8,2.7-32.5,3.7-43.2c1.4-14.4,2.7-28.8,4.4-43.2
			C217.8,112,219.1,112,219.1,112L219.1,112z"/>
	</g>
	<g>
		<path d="M133.4,99.9c1.2,6,2.1,12.4,3,18.4c-0.1,12.3-0.2,42.5-0.2,55.3c0,12.1-0.2,43.6-0.2,55.3c-0.9,6.1-1.8,12.3-3.1,18.4
			c-1.2-6.1-2-12.3-2.9-18.4c0-11.6,0.2-43.3,0.2-55.3c0-12.9,0.2-42.8,0.2-55.3C131.2,112.2,132.2,105.9,133.4,99.9L133.4,99.9z"/>
	</g>
	<g>
		<path d="M211.4,129.3c-38,1.7-48.6,53.9-34.4,82.6c5.2,10.4,14.7,18.7,26.4,20.7l-0.2,1.6c-9.5-0.3-18.7-5.2-25-12.3
			c-20.1-22.6-16.9-67.4,6.5-86.8c7.3-6.2,17.3-9.5,26.8-8.5C211.5,126.7,211.4,129.3,211.4,129.3L211.4,129.3z"/>
	</g>
	<g>
		<path d="M224.4,127.4c10.4,0.3,20.4,6.8,25.3,15.9l-6.3-4.1c-6.2-4-12.6-6.9-19.4-9.7C224,129.6,224.4,127.4,224.4,127.4
			L224.4,127.4z"/>
	</g>
	<g>
		<path d="M224,233c6.6-2.9,13.1-5.7,19.1-9.5c4.5-3.5,5.6-9.4,6.5-15.1c0.6-4.3,0.7-8.8,0.8-13.4c1.4,4.4,2,8.9,2.1,13.5
			c0,5.9-1.1,12.5-5.6,16.9c-2.7,2.5-6.2,3.8-9.4,5.2c-4.2,1.8-8.7,3.1-13.2,3.7C224.4,234.4,224,233,224,233L224,233z"/>
	</g>
	<g>
		<path d="M236.1,192.6c2.5-6,10.1-7.2,15.7-5.2c2.7,0.6,5.2,2.2,7.6,3.4c2.4,1,4.9,1.8,7.7,2.7c-2.7,0.8-5.7,0.9-8.6,0.3
			c-2.2-0.4-3.9-1.4-5.9-2C246.8,189.9,241.6,188.9,236.1,192.6L236.1,192.6z"/>
	</g>
</g>
<text transform="matrix(1 0 0 1 671 153)" class="st3 st4">Lorem ipsum</text>
</svg>
